<svg xmlns="http://www.w3.org/2000/svg" height="98.971" width="123.244"><path d="M62.751 87.548a5808.288 5808.288 0 00-7.679-20.19l-3.36-8.765-.791.147c-.436.081-5.155 1.404-10.489 2.94-13.204 3.802-17.45 4.981-17.555 4.876-.122-.122.835-2.267 6-13.454 2.45-5.305 4.423-9.733 4.383-9.838-.04-.106-2.543-2.786-5.564-5.957-3.02-3.17-6.521-6.919-7.78-8.328C12.495 20.66 5.892 11.997 2.81 6.53 1.2 3.68-.344 0 .067 0 .163 0 1.194.732 2.36 1.626c4.267 3.275 9.59 6.487 15.429 9.31 9.522 4.604 19.621 7.795 44.008 13.905 20.855 5.225 24.626 6.484 34.81 11.619 9.597 4.838 15.582 9.08 22.807 16.163l3.831 3.756-9.474.009c-5.21.005-14.053.075-19.65.156l-10.178.148-.612 1.58c-1.889 4.873-15.291 38.547-15.733 39.53l-.527 1.169z" fill="#fff"/></svg>