<svg xmlns="http://www.w3.org/2000/svg" height="493.512" width="355.551"><g fill="#f05921"><path d="M261.63 435.709l-.007.01.008-.01zM55.243 379.775l.011.014c.014.014.005.007.024.043 0 .002.003.004.004.006l.004.004.021.018c.008.011.018.022.028.033l.01.011.043.045c.11.064.21.14.302.229-.065-.06-.11-.106-.177-.166-.147-.133-.204-.179-.27-.236zm.779.713c-.041-.062-.056-.095.088.123l-.004-.01c0-.003-.004-.014-.002-.011.018.026.035.054.053.082.017.018.025.02.037.03.053.051.083.111.119.169.003-.007-.001-.023.139.119.054.055.072.131.097.203l.014.01-.004-.01c0-.002 0-.01.002-.008.018.01.028.032.045.047l.012.008c.034.02.042.027.074.04.006.004.011.005.017.007-.003 0-.008.003-.011.004-.015.003-.013.008-.012.012.003.003.008.009.012.011l.006.006c.023.012.047.024.039.035l.043.03c.047.035.094.071.14.11l.1.089.03.027a.951.951 0 01.083.088c.025.027.034.036.063.06.032.028.068.053.101.079.053.052.113.097.17.144.085.076.17.15.254.227l.106.1c.04.038.075.083.115.122.023.024.02.02.023.022a.501.501 0 00.041.021c.013.008.016.01.028.02.003.002.004.006.006.008 0 .002.003.003.004.004l.025.021.025.026a.134.134 0 01.024.006.144.144 0 01.06.033l.012.008c-.466-.499-1.25-1.258-2.174-2.111zm2.203 2.14a.21.21 0 01.03.046c.003.003.006.006.011.008.01.004.016.009.024.013-.016-.017-.049-.048-.065-.066z"/><path d="M174.737.002c-8.734-.22-38.669 19.428-70.406 48.086-37.89 34.214-78.145 92.139-92.885 133.66C-14.81 255.705 5.99 331.12 54.588 379.144l.032.03c.021.02.042.042.066.06l.025.028.174.167c.012.01.027.015.037.026l.004.006v.002c0-.001 0 .003.002.004l.002.002c.001 0 0 .003.002.004l.002.002.004.004v.002c.002.002.006.003.008.006l.004.004c.001 0 0 .003.002.004l.034.031c.01.005.02.008.037.02.007.005.016.015.025.023.002 0 .004.003.006.004l.012.012c.01.008.017.017.025.027l.004.006.02.018c.011.012.014.016.023.03.004 0 .015.025.016.024.003-.002-.007-.009.008.004l.015.02.012.011.002.002.012.012.011.012.246.236.01.008c.11.07.211.15.3.248-.014-.025.048.028.072.045.032.023.062.05.093.074.372.531-.03-.063.166.237l.006.004c0-.003-.004-.015-.002-.012l.02.03c.688.663 1.375 1.328 2.074 1.982.003.002.009.01.012.011.003.003.009.006.011.01l.002.004.106.098c-.012-.007.004 0 .012.008 30.784 28.721 71.922 46.785 118.931 47.432 12.1.166 22.377.328 22.838.361 3.878.275-7.073 33.345-15.879 47.951-5.587 9.268-6.364 11.804-4.26 13.908 2.1 2.1 5.585 1.312 12.272-2.78 61.85-37.89 112.13-93.245 143.086-157.546 60.794-126.289-22.347-267.992-157.875-269.074-28.237-.225-28.62-8.634-2.477-54.43 3.307-5.792 2.921-8.47-.238-8.55zm3.455 174.523c32.114.052 63.223 23.527 69.572 62.01 6.02 36.484-20.093 74.324-56.232 81.488-68.097 13.5-111.088-72.943-61.217-123.09 13.958-14.035 31.055-20.435 47.877-20.408z"/></g></svg>