<svg xmlns="http://www.w3.org/2000/svg" height="509.189" width="508.818"><path d="M236.819 508.797c-78.54-6.094-149.15-46.839-193.122-111.437C19.942 362.462 4.521 320.12.695 279.287c-.924-9.854-.927-40.241-.006-50.155 4.13-44.47 22.158-90.63 49.79-127.486C91.36 47.118 149.981 12.245 218.708 1.57 227.775.161 231.34 0 253.538 0c26.542 0 32.858.512 51.778 4.201 29.67 5.786 61.032 18.7 88.142 36.296 15.788 10.248 27.365 19.721 41.911 34.297 38.413 38.49 62.323 85.773 71.53 141.453 1.827 11.053 1.9 12.488 1.918 37.614.02 28.366-.203 30.917-4.57 52.038-4.958 23.992-14.854 50.625-26.776 72.064-5.426 9.758-17.152 27.415-23.29 35.07-11.47 14.306-30.51 33.042-43.814 43.118-37.839 28.656-81.277 46.122-128.269 51.576-11.67 1.354-34.623 1.897-45.279 1.07zm29.5-134.947c.244-2.586.465-40.437.492-84.114.026-43.677.286-86.652.578-95.5.488-14.842.648-16.28 2.06-18.565.843-1.362 2.021-2.665 2.62-2.895 4.478-1.718 9.932 1.58 12.573 7.603 1.102 2.512 1.254 6.898 1.6 45.96l.384 43.182 6.966 2.433c6.623 2.314 7.43 2.434 16.404 2.445l9.438.012 5.233-2.585c9.41-4.65 15.472-12.723 18.863-25.123 1.793-6.558 2.478-25.164 1.299-35.305-2.278-19.597-9.204-32.935-22.592-43.508-5.772-4.559-18.182-11.085-29.107-15.308-18.436-7.125-78.297-23.95-79.814-22.432-.193.193-.078 52.468.256 116.167l.608 115.817 25.425 8.16c13.985 4.489 25.616 8.183 25.848 8.21.232.026.622-2.068.866-4.654zm40.625-9.863c94.091-33.534 100.826-36.394 105.707-44.886 6.476-11.266-.953-19.997-23.707-27.862-24.158-8.351-55.511-10.628-82.911-6.021-9.26 1.557-25.897 5.596-29.145 7.076l-1.85.843.222 15.483c.12 8.516.475 15.738.785 16.048.311.31 2.506-.134 4.877-.987 17.868-6.426 58.797-19.743 62.477-20.328 6.418-1.02 12.286-.901 17.074.346 3.918 1.02 6.61 2.612 6.61 3.908 0 2.512-7.751 5.727-53.986 22.39-16.475 5.939-31.522 11.386-33.437 12.106l-3.483 1.31-.454 3.811c-.608 5.11-.7 19.894-.148 23.917.265 1.932.802 3.232 1.335 3.232.491 0 14.006-4.674 30.034-10.386zM195.72 348.626c10.219-1.273 9.055.746 9.055-15.714 0-7.847-.11-14.267-.245-14.267-.134 0-5.542 1.903-12.016 4.23-16.423 5.903-24.678 7.838-33.366 7.824-10.475-.017-17.625-2.942-14.98-6.13 2.05-2.468 14.56-7.404 52.074-20.54l8.533-2.989-.01-14.708c-.006-8.09-.295-15.156-.642-15.705-.665-1.052-13.591 3.189-52.289 17.155-46.58 16.81-55.648 21.75-57.438 31.287-2.45 13.06 17.416 23.457 57.09 29.876 7.13 1.154 33.958.96 44.234-.32z" fill="#003087"/></svg>