<?xml version="1.0" encoding="UTF-8" standalone="no"?>
<svg
   xmlns:dc="http://purl.org/dc/elements/1.1/"
   xmlns:cc="http://creativecommons.org/ns#"
   xmlns:rdf="http://www.w3.org/1999/02/22-rdf-syntax-ns#"
   xmlns:svg="http://www.w3.org/2000/svg"
   xmlns="http://www.w3.org/2000/svg"
   xmlns:sodipodi="http://sodipodi.sourceforge.net/DTD/sodipodi-0.dtd"
   xmlns:inkscape="http://www.inkscape.org/namespaces/inkscape"
   inkscape:version="1.0 (4035a4fb49, 2020-05-01)"
   sodipodi:docname="dashes.svg"
   viewBox="0 0 225 225"
   height="225"
   width="225"
   id="svg2"
   version="1.1">
  <metadata
     id="metadata8">
    <rdf:RDF>
      <cc:Work
         rdf:about="">
        <dc:format>image/svg+xml</dc:format>
        <dc:type
           rdf:resource="http://purl.org/dc/dcmitype/StillImage" />
        <dc:title></dc:title>
      </cc:Work>
    </rdf:RDF>
  </metadata>
  <defs
     id="defs6" />
  <sodipodi:namedview
     inkscape:current-layer="g10"
     inkscape:window-maximized="1"
     inkscape:window-y="1"
     inkscape:window-x="-8"
     inkscape:cy="112.5"
     inkscape:cx="120.31022"
     inkscape:zoom="3.2666667"
     showgrid="false"
     id="namedview4"
     inkscape:window-height="1137"
     inkscape:window-width="1920"
     inkscape:pageshadow="2"
     inkscape:pageopacity="0"
     guidetolerance="10"
     gridtolerance="10"
     objecttolerance="10"
     borderopacity="1"
     bordercolor="#666666"
     pagecolor="#ffffff" />
  <g
     id="g10"
     inkscape:label="Image"
     inkscape:groupmode="layer">
    <g
       id="g14">
      <path
         id="path30"
         d="m 48.8125,194.31689 c 0.721875,-0.28887 1.584375,-0.25335 1.916667,0.0789 0.332291,0.33229 -0.258334,0.56864 -1.3125,0.52522 -1.164943,-0.048 -1.4019,-0.28494 -0.604167,-0.60416 z m 9,0 c 0.721875,-0.28887 1.584375,-0.25335 1.916667,0.0789 0.332291,0.33229 -0.258334,0.56864 -1.3125,0.52522 -1.164943,-0.048 -1.4019,-0.28494 -0.604167,-0.60416 z M 138,190.62244 c 0,-0.20765 0.7875,-0.99515 1.75,-1.75 1.58606,-1.24387 1.62143,-1.2085 0.37756,0.37756 C 138.82119,190.91575 138,191.44548 138,190.62244 Z M 32.8125,181.31689 c 0.721875,-0.28887 1.584375,-0.25335 1.916667,0.0789 0.332291,0.33229 -0.258334,0.56864 -1.3125,0.52522 -1.164943,-0.048 -1.4019,-0.28494 -0.604167,-0.60416 z M 185,179.68709 c 0,-0.1721 1.4625,-1.6346 3.25,-3.25 l 3.25,-2.93709 -2.93709,3.25 C 185.82513,179.77946 185,180.45965 185,179.68709 Z m -26,-11.06465 c 0,-0.20765 0.7875,-0.99515 1.75,-1.75 1.58606,-1.24387 1.62143,-1.2085 0.37756,0.37756 C 159.82119,168.91575 159,169.44548 159,168.62244 Z M 58.761659,136.29274 c 1.243913,-0.23919 3.043913,-0.23011 4,0.0202 0.956088,0.25029 -0.06166,0.446 -2.261659,0.4349 -2.2,-0.0111 -2.982253,-0.21589 -1.738341,-0.45508 z M 192.8125,129.31689 c 0.72187,-0.28887 1.58437,-0.25335 1.91667,0.0789 0.33229,0.33229 -0.25834,0.56864 -1.3125,0.52522 -1.16495,-0.048 -1.4019,-0.28494 -0.60417,-0.60416 z m 24.26645,-15.90022 c 0.048,-1.16495 0.28494,-1.4019 0.60416,-0.60417 0.28887,0.72187 0.25335,1.58437 -0.0789,1.91667 -0.3323,0.33229 -0.56864,-0.25834 -0.52522,-1.3125 z M 125.75,113.33772 c 0.6875,-0.27741 1.8125,-0.27741 2.5,0 0.6875,0.27741 0.125,0.50439 -1.25,0.50439 -1.375,0 -1.9375,-0.22698 -1.25,-0.50439 z M 217.15789,107 c 0,-1.375 0.22698,-1.9375 0.50439,-1.25 0.27741,0.6875 0.27741,1.8125 0,2.5 -0.27741,0.6875 -0.50439,0.125 -0.50439,-1.25 z M 161.40499,26.75 159.5,24.5 l 2.25,1.904988 C 163.86444,28.195206 164.45524,29 163.65499,29 c -0.18976,0 -1.20226,-1.0125 -2.25,-2.25 z"
         style="fill:#d0d0d0;fill-opacity:1" />
      <path
         id="path28"
         d="m 98.75,112.33772 c 0.6875,-0.27741 1.8125,-0.27741 2.5,0 0.6875,0.27741 0.125,0.50439 -1.25,0.50439 -1.375,0 -1.9375,-0.22698 -1.25,-0.50439 z m 40.32895,-54.921053 c 0.048,-1.164943 0.28494,-1.4019 0.60416,-0.604167 0.28887,0.721875 0.25335,1.584375 -0.0789,1.916667 -0.3323,0.332291 -0.56864,-0.258334 -0.52522,-1.3125 z M 76.404988,40.75 74.5,38.5 76.75,40.404988 C 78.864445,42.195206 79.455241,43 78.654988,43 c -0.189757,0 -1.202257,-1.0125 -2.25,-2.25 z"
         style="fill:#b9b9b9;fill-opacity:1" />
      <path
         id="path26"
         d="m 145.8125,114.31689 c 0.72187,-0.28887 1.58437,-0.25335 1.91667,0.0789 0.33229,0.3323 -0.25834,0.56864 -1.3125,0.52522 -1.16495,-0.048 -1.4019,-0.28494 -0.60417,-0.60416 z"
         style="fill:#a3a3a3;fill-opacity:1" />
      <path
         id="path24"
         d="m 21.269032,181.30701 c 0.972967,-0.25354 2.322967,-0.23687 3,0.0371 0.677032,0.27393 -0.119032,0.48137 -1.769032,0.46099 -1.65,-0.0204 -2.203936,-0.2445 -1.230968,-0.49804 z m 5.480968,0.0307 c 0.6875,-0.27741 1.8125,-0.27741 2.5,0 0.6875,0.27741 0.125,0.50439 -1.25,0.50439 -1.375,0 -1.9375,-0.22698 -1.25,-0.50439 z m 92,-68 c 0.6875,-0.27741 1.8125,-0.27741 2.5,0 0.6875,0.27741 0.125,0.50439 -1.25,0.50439 -1.375,0 -1.9375,-0.22698 -1.25,-0.50439 z M 62.872445,109.25 c -1.243871,-1.58606 -1.208501,-1.62143 0.377555,-0.37756 0.9625,0.75485 1.75,1.54235 1.75,1.75 0,0.82304 -0.821186,0.29331 -2.127555,-1.37244 z M 118.8125,9.316886 c 0.72187,-0.2888706 1.58437,-0.2533443 1.91667,0.078947 0.33229,0.3322917 -0.25834,0.5686404 -1.3125,0.5252193 -1.16495,-0.047984 -1.4019,-0.2849403 -0.60417,-0.6041663 z"
         style="fill:#8c8c8c;fill-opacity:1" />
      <path
         id="path22"
         d="M 128.87244,35.25 C 127.62857,33.663944 127.66394,33.628574 129.25,34.872445 130.91575,36.178814 131.44548,37 130.62244,37 c -0.20765,0 -0.99515,-0.7875 -1.75,-1.75 z M 121.8125,9.316886 c 0.72187,-0.2888706 1.58437,-0.2533443 1.91667,0.078947 0.33229,0.3322917 -0.25834,0.5686404 -1.3125,0.5252193 -1.16495,-0.047984 -1.4019,-0.2849403 -0.60417,-0.6041663 z"
         style="fill:#767676;fill-opacity:1" />
      <path
         id="path20"
         d="m 207.07895,109.41667 c 0.048,-1.16495 0.28494,-1.4019 0.60416,-0.60417 0.28887,0.72187 0.25335,1.58437 -0.0789,1.91667 -0.3323,0.33229 -0.56864,-0.25834 -0.52522,-1.3125 z"
         style="fill:#606060;fill-opacity:1" />
      <path
         id="path18"
         d="m 66.315404,217.25114 c 10.348472,-0.16266 26.998472,-0.16241 36.999996,5.6e-4 10.00153,0.16297 1.5346,0.29606 -18.8154,0.29575 -20.35,-3.1e-4 -28.533068,-0.13365 -18.184596,-0.29631 z"
         style="fill:#494949;fill-opacity:1" />
      <path
         id="path16"
         d="M 0,112.5 V 0 H 112.5 225 V 112.5 225 H 112.5 0 Z m 129.37602,101.89934 c 12.21732,-4.8214 27.95089,-13.15617 39.03895,-20.68067 11.49708,-7.80207 27.66828,-23.86267 34.372,-34.13692 C 222.5785,129.24886 222.93862,92.026819 203.748,60.25 200.22044,54.408889 199,53.729177 199,57.605655 c 0,6.958374 -7.86303,27.215065 -10.04145,25.868727 -0.43149,-0.266675 -1.10086,-2.395004 -1.48749,-4.729622 -0.38663,-2.334618 -2.18434,-8.787999 -3.99492,-14.340846 C 174.12582,35.727479 159.03894,18.444663 137.5,11.7358 124.65763,7.7357107 102.73821,9.5136845 88.168149,15.737308 L 84.5,17.304164 l 8,1.366484 c 15.40096,2.630646 26.77787,7.641649 34.99621,15.414215 C 138.02606,44.04355 141.71679,56.75597 136.76197,66 133.18979,72.664482 128.51163,74.964365 118.5,74.977973 103.37843,74.998526 99.039341,72.460474 90.268392,58.464527 82.628822,46.273938 75.811083,38.417886 68.807028,33.734687 c -2.918866,-1.951674 -5.395446,-3.464472 -5.503512,-3.361775 -0.108066,0.102697 1.083645,3.998305 2.648246,8.656905 5.024467,14.960352 5.132732,23.339452 0.374628,28.994138 C 62.911156,72.08273 56.857284,72.121815 48.5,68.139047 36.926694,62.623644 22.604284,48.003096 13.463726,32.373452 11.399541,28.843856 9.5200955,26.146571 9.2871807,26.379486 8.5709247,27.095742 12.823818,49.218419 15.089919,56.564139 20.122146,72.876446 27.296208,82.100889 44.492681,94.370351 70.761593,113.11288 80.257137,128.57793 68.977851,134.24845 56.656332,140.44294 32.590343,130.31637 20.454112,113.83047 18.00435,110.5027 16,108.31701 16,108.97338 c 0,4.12645 4.796869,18.95371 8.701213,26.8957 5.705068,11.60492 14.468859,20.88032 24.860415,26.31172 7.581101,3.96244 16.068591,6.77067 20.869873,6.90514 2.705684,0.0758 2.240829,0.48172 -3.931501,3.43322 -12.369235,5.91475 -22.801213,7.98056 -40.301307,7.98071 l -15.301307,1.3e-4 2.801307,2.29154 c 4.810072,3.93476 16.471644,8.99516 24.509149,10.63545 16.379504,3.34272 30.633389,1.74053 52.292158,-5.87783 2.957331,-1.04023 -4.754644,5.75823 -13.5,11.90086 -9.016587,6.33314 -22.091001,13.83758 -27.25,15.64093 C 47.6875,215.8119 46,216.76138 46,217.20089 46,217.6404 62.706707,218 83.126016,218 H 120.25203 Z M 118.28375,172.52049 C 140.27896,145.0786 151.5102,130.30815 150.71558,129.86867 150.04701,129.4989 137.8,125.73061 123.5,121.49469 109.2,117.25877 97.275,113.55546 97,113.2651 c -0.495241,-0.5229 21.05375,0.17302 42.75,1.38061 6.34594,0.35321 11.23529,0.23997 11.21626,-0.25977 -0.0186,-0.48727 -5.2114,-4.93594 -11.53965,-9.88594 -6.32825,-4.95 -12.50057,-9.788262 -13.71626,-10.751693 -2.14138,-1.697036 -2.08554,-1.708323 1.78965,-0.361736 3.91904,1.361823 51.39654,18.826689 54.65505,20.105179 1.27328,0.49957 1.82043,-0.11659 2.37204,-2.6712 2.33728,-10.824549 10.73112,-17.428647 17.5283,-13.790906 5.30569,2.83952 6.72009,15.289436 2.62013,23.063076 -2.77167,5.25516 -8.02624,9.12612 -11.84445,8.72561 -2.16882,-0.22749 -5.18956,1.73615 -14.91908,9.69821 -6.70979,5.4909 -12.68438,10.29649 -13.27685,10.67909 -0.59247,0.38259 -0.80479,0.96805 -0.47182,1.30103 0.52736,0.52735 11.95372,3.85737 25.64635,7.47419 l 4.30967,1.13837 -9.30967,5.60707 c -5.12032,3.08388 -18.46888,11.16949 -29.66348,17.96801 l -20.35381,12.36095 13.54849,-14.20763 c 7.45167,-7.81419 13.35397,-14.52237 13.11622,-14.90705 -0.23775,-0.38468 -3.33859,-1.24781 -6.89077,-1.91806 l -6.45851,-1.21863 -29.8039,24.25691 c -16.39215,13.3413 -30.673233,24.97518 -31.735739,25.85306 -1.062506,0.87788 13.209504,-17.29463 31.715579,-40.38336 z"
         style="fill:#333333;fill-opacity:1" />
    </g>
  </g>
</svg>
